<mxfile host="app.diagrams.net" modified="2024-02-23T17:58:08.622Z" agent="5.0 (Windows NT 10.0; Win64; x64) AppleWebKit/537.36 (KHTML, like Gecko) Chrome/120.0.0.0 Safari/537.36 OPR/106.0.0.0" version="20.7.4" etag="uVvWkDn_9inNsFEl2FBO" type="github">
  <diagram id="WTumbUDteVA8QTmnhO7a" name="Page-1">
    <mxGraphModel dx="917" dy="556" grid="1" gridSize="10" guides="1" tooltips="1" connect="1" arrows="1" fold="1" page="1" pageScale="1" pageWidth="850" pageHeight="1100" math="0" shadow="0">
      <root>
        <mxCell id="0" />
        <mxCell id="1" parent="0" />
        <mxCell id="EE3mhE9z7PggbBqgpWji-1" value="Поставщик&lt;br&gt;" style="shape=umlActor;verticalLabelPosition=bottom;verticalAlign=top;html=1;outlineConnect=0;" vertex="1" parent="1">
          <mxGeometry x="60" y="60" width="30" height="60" as="geometry" />
        </mxCell>
        <mxCell id="EE3mhE9z7PggbBqgpWji-2" value="Диетолог" style="shape=umlActor;verticalLabelPosition=bottom;verticalAlign=top;html=1;outlineConnect=0;" vertex="1" parent="1">
          <mxGeometry x="60" y="300" width="30" height="60" as="geometry" />
        </mxCell>
        <mxCell id="EE3mhE9z7PggbBqgpWji-3" value="Составить меню&lt;br&gt;" style="ellipse;whiteSpace=wrap;html=1;" vertex="1" parent="1">
          <mxGeometry x="230" y="320" width="140" height="40" as="geometry" />
        </mxCell>
        <mxCell id="EE3mhE9z7PggbBqgpWji-4" value="Поставить продукты" style="ellipse;whiteSpace=wrap;html=1;" vertex="1" parent="1">
          <mxGeometry x="130" y="80" width="140" height="40" as="geometry" />
        </mxCell>
        <mxCell id="EE3mhE9z7PggbBqgpWji-5" value="Директор" style="shape=umlActor;verticalLabelPosition=bottom;verticalAlign=top;html=1;outlineConnect=0;" vertex="1" parent="1">
          <mxGeometry x="60" y="180" width="30" height="60" as="geometry" />
        </mxCell>
        <mxCell id="EE3mhE9z7PggbBqgpWji-6" value="Заказать продукты" style="ellipse;whiteSpace=wrap;html=1;" vertex="1" parent="1">
          <mxGeometry x="230" y="160" width="140" height="40" as="geometry" />
        </mxCell>
        <mxCell id="EE3mhE9z7PggbBqgpWji-7" value="Ребенок" style="shape=umlActor;verticalLabelPosition=bottom;verticalAlign=top;html=1;outlineConnect=0;" vertex="1" parent="1">
          <mxGeometry x="690" y="190" width="30" height="60" as="geometry" />
        </mxCell>
        <mxCell id="EE3mhE9z7PggbBqgpWji-9" value="Хочу кушац" style="ellipse;whiteSpace=wrap;html=1;" vertex="1" parent="1">
          <mxGeometry x="500" y="200" width="140" height="40" as="geometry" />
        </mxCell>
        <mxCell id="EE3mhE9z7PggbBqgpWji-10" value="" style="endArrow=classic;html=1;rounded=0;" edge="1" parent="1" source="EE3mhE9z7PggbBqgpWji-7" target="EE3mhE9z7PggbBqgpWji-9">
          <mxGeometry width="50" height="50" relative="1" as="geometry">
            <mxPoint x="660" y="500" as="sourcePoint" />
            <mxPoint x="710" y="450" as="targetPoint" />
          </mxGeometry>
        </mxCell>
        <mxCell id="EE3mhE9z7PggbBqgpWji-11" value="Готовить еду" style="ellipse;whiteSpace=wrap;html=1;" vertex="1" parent="1">
          <mxGeometry x="160" y="440" width="140" height="40" as="geometry" />
        </mxCell>
        <mxCell id="EE3mhE9z7PggbBqgpWji-12" value="Повар" style="shape=umlActor;verticalLabelPosition=bottom;verticalAlign=top;html=1;outlineConnect=0;" vertex="1" parent="1">
          <mxGeometry x="60" y="420" width="30" height="60" as="geometry" />
        </mxCell>
        <mxCell id="EE3mhE9z7PggbBqgpWji-13" value="" style="endArrow=classic;html=1;rounded=0;" edge="1" parent="1" source="EE3mhE9z7PggbBqgpWji-12" target="EE3mhE9z7PggbBqgpWji-11">
          <mxGeometry width="50" height="50" relative="1" as="geometry">
            <mxPoint x="150" y="430" as="sourcePoint" />
            <mxPoint x="200" y="380" as="targetPoint" />
          </mxGeometry>
        </mxCell>
        <mxCell id="EE3mhE9z7PggbBqgpWji-14" value="" style="endArrow=none;html=1;rounded=0;endFill=0;" edge="1" parent="1" source="EE3mhE9z7PggbBqgpWji-2" target="EE3mhE9z7PggbBqgpWji-3">
          <mxGeometry width="50" height="50" relative="1" as="geometry">
            <mxPoint x="320" y="440" as="sourcePoint" />
            <mxPoint x="370" y="390" as="targetPoint" />
          </mxGeometry>
        </mxCell>
        <mxCell id="EE3mhE9z7PggbBqgpWji-15" value="Проверить меню" style="ellipse;whiteSpace=wrap;html=1;" vertex="1" parent="1">
          <mxGeometry x="380" y="440" width="140" height="40" as="geometry" />
        </mxCell>
        <mxCell id="EE3mhE9z7PggbBqgpWji-16" value="Include" style="endArrow=classicThin;endSize=12;dashed=1;html=1;rounded=0;endFill=1;" edge="1" parent="1" source="EE3mhE9z7PggbBqgpWji-11" target="EE3mhE9z7PggbBqgpWji-15">
          <mxGeometry width="160" relative="1" as="geometry">
            <mxPoint x="300" y="500" as="sourcePoint" />
            <mxPoint x="510" y="650" as="targetPoint" />
          </mxGeometry>
        </mxCell>
        <mxCell id="EE3mhE9z7PggbBqgpWji-17" value="Запросить меню" style="ellipse;whiteSpace=wrap;html=1;" vertex="1" parent="1">
          <mxGeometry x="130" y="240" width="140" height="40" as="geometry" />
        </mxCell>
        <mxCell id="EE3mhE9z7PggbBqgpWji-18" value="Бухгалтер" style="shape=umlActor;verticalLabelPosition=bottom;verticalAlign=top;html=1;outlineConnect=0;" vertex="1" parent="1">
          <mxGeometry x="420" y="140" width="30" height="60" as="geometry" />
        </mxCell>
        <mxCell id="EE3mhE9z7PggbBqgpWji-19" value="" style="endArrow=none;html=1;rounded=0;endFill=0;" edge="1" parent="1" source="EE3mhE9z7PggbBqgpWji-18" target="EE3mhE9z7PggbBqgpWji-6">
          <mxGeometry width="50" height="50" relative="1" as="geometry">
            <mxPoint x="388.9999999999999" y="270.0016175527426" as="sourcePoint" />
            <mxPoint x="460.6169987822625" y="274.73606242389144" as="targetPoint" />
          </mxGeometry>
        </mxCell>
        <mxCell id="EE3mhE9z7PggbBqgpWji-20" value="Extend" style="endArrow=classicThin;endSize=12;dashed=1;html=1;rounded=0;endFill=1;" edge="1" parent="1" source="EE3mhE9z7PggbBqgpWji-3" target="EE3mhE9z7PggbBqgpWji-17">
          <mxGeometry width="160" relative="1" as="geometry">
            <mxPoint x="344.99999999999886" y="329.6600000000001" as="sourcePoint" />
            <mxPoint x="425" y="329.6600000000001" as="targetPoint" />
          </mxGeometry>
        </mxCell>
        <mxCell id="EE3mhE9z7PggbBqgpWji-21" value="" style="endArrow=classic;html=1;rounded=0;" edge="1" parent="1" source="EE3mhE9z7PggbBqgpWji-5" target="EE3mhE9z7PggbBqgpWji-17">
          <mxGeometry width="50" height="50" relative="1" as="geometry">
            <mxPoint x="381.43" y="220.0007310855121" as="sourcePoint" />
            <mxPoint x="300.00363685300084" y="225.05313424292052" as="targetPoint" />
          </mxGeometry>
        </mxCell>
        <mxCell id="EE3mhE9z7PggbBqgpWji-22" value="Extend" style="endArrow=classicThin;endSize=12;dashed=1;html=1;rounded=0;endFill=1;" edge="1" parent="1" source="EE3mhE9z7PggbBqgpWji-3" target="EE3mhE9z7PggbBqgpWji-6">
          <mxGeometry width="160" relative="1" as="geometry">
            <mxPoint x="379.99645221012275" y="299.99516176809817" as="sourcePoint" />
            <mxPoint x="327.0835477898716" y="257.66483823189736" as="targetPoint" />
          </mxGeometry>
        </mxCell>
        <mxCell id="EE3mhE9z7PggbBqgpWji-23" value="Extend" style="endArrow=classicThin;endSize=12;dashed=1;html=1;rounded=0;endFill=1;" edge="1" parent="1" source="EE3mhE9z7PggbBqgpWji-6" target="EE3mhE9z7PggbBqgpWji-4">
          <mxGeometry width="160" relative="1" as="geometry">
            <mxPoint x="420" y="370.0000000000001" as="sourcePoint" />
            <mxPoint x="420" y="250" as="targetPoint" />
          </mxGeometry>
        </mxCell>
      </root>
    </mxGraphModel>
  </diagram>
</mxfile>
